<svg width="73" height="72" viewBox="0 0 73 72" fill="none" xmlns="http://www.w3.org/2000/svg">
<path d="M0.99 0.00997925H0V39.51C0.33 39.5 0.66 39.48 0.99 39.48C18.48 39.48 33.65 53.7 33.65 71.25H72.99C72.99 31.9 40.21 0 0.99 0V0.00997925Z" fill="#FBA93E"/>
<path d="M0.99 0.0100098H0V14.77C28.44 20.23 51.84 42.72 57.29 71.26H72.99C72.99 31.91 40.21 0.0100098 0.99 0.0100098Z" fill="#245D51"/>
<path d="M16.36 59.4301C16.36 62.6801 13.74 65.3101 10.5 65.3101C7.26002 65.3101 3.65002 62.6801 3.65002 59.4301C3.65002 56.1801 7.27002 53.55 10.5 53.55C13.73 53.55 16.36 56.1801 16.36 59.4301Z" fill="#FBA93E"/>
</svg>
