<svg xmlns="http://www.w3.org/2000/svg" width="187.879" height="122" viewBox="0 0 187.879 122">
  <g id="undraw_newsletter_re_wrob" transform="translate(0 -0.002)">
    <path id="Path_100" data-name="Path 100" d="M877.9,376.2a19.268,19.268,0,0,1-17.787,19.212c-.162.012-.327.025-.493.032V377.157a1.225,1.225,0,0,0-.454-.954.31.31,0,0,0-.054-.044.459.459,0,0,0-.057-.04,1.235,1.235,0,0,0-1.178-.086l-.205-.45a1.731,1.731,0,0,1,.714-.156l-14.071-12.122c.109-.124.222-.245.336-.366A19.27,19.27,0,0,1,877.9,376.2Z" transform="translate(-690.024 -318.921)" fill="#f2f2f2"/>
    <path id="Path_101" data-name="Path 101" d="M239.36,438.766a2.492,2.492,0,0,1,2.4-2.97l11.107-13.222,2.773,3.545-11.32,12.305a2.505,2.505,0,0,1-4.964.341Z" transform="translate(-234.474 -368.347)" fill="#ffb8b8"/>
    <path id="Path_102" data-name="Path 102" d="M397.941,418.878a2.6,2.6,0,0,0-.206.354l-12.128,1.734-1.842-2.338-3.892,2.318,3.658,5.7,14.791-4.36a2.593,2.593,0,1,0-.383-3.411Z" transform="translate(-340.312 -364.733)" fill="#ffb8b8"/>
    <path id="Path_103" data-name="Path 103" d="M149.426,372.778l2.146,2.137,9.264-7.261-3.167-3.154Z" transform="translate(-112.513 -274.456)" fill="#ffb8b8"/>
    <path id="Path_104" data-name="Path 104" d="M0,0H9.518V3.678H3.678A3.678,3.678,0,0,1,0,0H0Z" transform="translate(41.214 106.571) rotate(-135.123)" fill="#2f2e41"/>
    <path id="Path_105" data-name="Path 105" d="M103.244,445.374h3.029l1.441-11.682h-4.47Z" transform="translate(-77.739 -326.555)" fill="#ffb8b8"/>
    <path id="Path_106" data-name="Path 106" d="M0,0H9.518V3.678H3.678A3.677,3.677,0,0,1,0,0H0Z" transform="translate(34.374 121.63) rotate(179.997)" fill="#2f2e41"/>
    <path id="Path_107" data-name="Path 107" d="M308.846,511.136,305.4,485.7a31.855,31.855,0,0,1,.494-11.54c.708-3.041,1.664-5.148,2.842-6.261a1.166,1.166,0,0,1,.678-.309L320.8,466.4a1.163,1.163,0,0,1,1.114.557l.374.624a1.158,1.158,0,0,1,.109.241l2.408,7.465a.893.893,0,0,0,.447.525c3.791,1.936,16.107,8.47,15.4,11.289-.662,2.649-6.862,6.944-8.747,8.2a1.151,1.151,0,0,1-1.294-.01l-3.128-2.14a1.159,1.159,0,0,1-.033-1.89l2.157-1.589a.9.9,0,0,0-.236-1.577l-11.585-4.065a.9.9,0,0,0-1.2.777l-2.136,26.108a1.162,1.162,0,0,1-1.1,1.063l-3.305.165-.06,0a1.152,1.152,0,0,1-1.147-1Z" transform="translate(-283.999 -401.34)" fill="#2f2e41"/>
    <circle id="Ellipse_49" data-name="Ellipse 49" cx="6.067" cy="6.067" r="6.067" transform="translate(24.003 31.859)" fill="#ffb8b8"/>
    <path id="Path_108" data-name="Path 108" d="M304.864,408.4l-4.466-16.3.076-.052a22.847,22.847,0,0,1,20.993-1.3l.2.117-2.646,16.913a1.676,1.676,0,0,1-1.592,1.427l-10.89.419h-.066A1.668,1.668,0,0,1,304.864,408.4Z" transform="translate(-280.469 -342.888)" fill="#ccc"/>
    <path id="Path_109" data-name="Path 109" d="M287.5,413.023l-3.72-4.277a1.158,1.158,0,0,1-.026-1.49l3.888-4.8,2.985.814,1.583,5.539-2.885,4.122a1.153,1.153,0,0,1-.889.493l-.062,0A1.151,1.151,0,0,1,287.5,413.023Z" transform="translate(-267.744 -353.195)" fill="#ccc"/>
    <path id="Path_110" data-name="Path 110" d="M371.47,407.513a1.153,1.153,0,0,1-.889-.493L367.7,402.9l1.388-5.831,2.748-.75.513.245,3.807,4.786a1.158,1.158,0,0,1-.026,1.49l-3.72,4.277a1.151,1.151,0,0,1-.873.4Z" transform="translate(-331.142 -348.577)" fill="#ccc"/>
    <path id="Path_111" data-name="Path 111" d="M569.7,289.319a.242.242,0,0,1-.059.168.247.247,0,0,1-.348.027l-.828-.714-14.071-12.122-39.465-34a1.24,1.24,0,0,0-1.616,0l-53.146,46.172-.479.415a.239.239,0,0,1-.062.04.247.247,0,0,1-.126.02.253.253,0,0,1-.161-.082.246.246,0,0,1,.022-.348l.067-.059L512.989,242.3a1.741,1.741,0,0,1,2.263,0l39.478,34.013,14.884,12.826A.251.251,0,0,1,569.7,289.319Z" transform="translate(-400.1 -232.293)" fill="#3f3d56"/>
    <path id="Path_112" data-name="Path 112" d="M531.523,267.386l-.65-1.788-2.238-6.176-4.822-13.3-5.39-14.864L508.7,204.45a2.1,2.1,0,0,0-2.69-1.257l-56.2,20.377a2.1,2.1,0,0,0-1.257,2.69l13.782,38.008.235.65,14.466,6.556,4.066,1.843.66.3,17.216,7.8.667-.242,11.292-4.093,17.033-6.176,2.295-.832a2.1,2.1,0,0,0,1.26-2.69Z" transform="translate(-391.931 -203.065)" fill="#e6e6e6"/>
    <path id="Path_113" data-name="Path 113" d="M570.625,329.072a3.093,3.093,0,0,0-3.957-1.85l-22.238,8.066-10.738,3.893a3.087,3.087,0,1,0,2.1,5.805l8.634-3.13,24.345-8.826A3.093,3.093,0,0,0,570.625,329.072Z" transform="translate(-454.599 -296.41)" fill="#fff"/>
    <path id="Path_114" data-name="Path 114" d="M586.471,372.792a3.093,3.093,0,0,0-3.957-1.85l-3.767,1.366-22.386,8.117-6.823,2.473a3.089,3.089,0,0,0,2.1,5.808l4.718-1.712,28.26-10.247c.064-.022.126-.049.188-.077A3.087,3.087,0,0,0,586.471,372.792Z" transform="translate(-466.53 -329.33)" fill="#fff"/>
    <path id="Path_115" data-name="Path 115" d="M602.5,416.972a3.09,3.09,0,0,0-3.955-1.85l-10.565,3.831L579.8,421.92l-11.368,4.12-2.865,1.04a3.1,3.1,0,0,0-2.008,3.315,3.063,3.063,0,0,0,.148.61l4.066,1.843.66-.24h0l20.63-7.48,11.583-4.2a3.091,3.091,0,0,0,1.85-3.957Z" transform="translate(-478.597 -362.596)" fill="#fff"/>
    <path id="Path_116" data-name="Path 116" d="M570.346,286.092a3.093,3.093,0,0,0-3.957-1.85l-12.771,4.629a3.089,3.089,0,1,0,2.1,5.808l4.041-1.465,2.675-.971,6.057-2.2A3.091,3.091,0,0,0,570.346,286.092Z" transform="translate(-469.602 -264.047)" fill="#fff"/>
    <path id="Path_117" data-name="Path 117" d="M645.248,317.2H585.467a2.1,2.1,0,0,0-1.769.971,2.078,2.078,0,0,0-.331,1.129v40.256l17.216,7.8,2.426,1.1,3.831,1.737a1.734,1.734,0,0,0,1.428,0l3.831-1.737,11.991-5.435,11.176-5.067,12.082-5.474V319.295A2.1,2.1,0,0,0,645.248,317.2Z" transform="translate(-493.536 -289)" fill="#ffaa3b"/>
    <path id="Path_118" data-name="Path 118" d="M667.532,431.2H632.454a3.087,3.087,0,0,0-3.083,2.967.978.978,0,0,0,0,.121,3.092,3.092,0,0,0,3.088,3.088h35.078a3.088,3.088,0,0,0,0-6.176Z" transform="translate(-528.172 -374.838)" fill="#fff"/>
    <path id="Path_119" data-name="Path 119" d="M669.531,478.431a3.066,3.066,0,0,0-2-.736H632.455a3.088,3.088,0,1,0,0,6.176h26.272L669.9,478.8A3.109,3.109,0,0,0,669.531,478.431Z" transform="translate(-528.172 -409.851)" fill="#fff"/>
    <path id="Path_120" data-name="Path 120" d="M662.877,524.7l3.831,1.737a1.734,1.734,0,0,0,1.428,0l3.831-1.737Z" transform="translate(-553.405 -445.241)" fill="#fff"/>
    <path id="Path_121" data-name="Path 121" d="M692.441,371.723a3.089,3.089,0,0,0-2.9-2.028H675.955a3.09,3.09,0,0,0-2.811,1.813,3.053,3.053,0,0,0-.277,1.275,3.092,3.092,0,0,0,3.088,3.088h13.587a3.088,3.088,0,0,0,2.9-4.148Z" transform="translate(-560.927 -328.531)" fill="#fff"/>
    <path id="Path_122" data-name="Path 122" d="M525.691,449.317,513.7,454.751l-2.838,1.287a1.239,1.239,0,0,1-1.018,0l-2.838-1.287h-1.2l3.831,1.737a1.734,1.734,0,0,0,1.428,0l3.831-1.737,11.991-5.435Zm0,0L513.7,454.751l-2.838,1.287a1.239,1.239,0,0,1-1.018,0l-2.838-1.287h-1.2l3.831,1.737a1.734,1.734,0,0,0,1.428,0l3.831-1.737,11.991-5.435Zm0,0L513.7,454.751l-2.838,1.287a1.239,1.239,0,0,1-1.018,0l-2.838-1.287h-1.2l3.831,1.737a1.734,1.734,0,0,0,1.428,0l3.831-1.737,11.991-5.435Zm40.244-16.993a1.886,1.886,0,0,0-.3-.242,1.72,1.72,0,0,0-1.65-.121l-26.291,11.917-12,5.44L513.7,454.751l-2.838,1.287a1.239,1.239,0,0,1-1.018,0l-2.838-1.287-2.957-1.341-17.878-8.1,0,0-4.874-2.211-14.552-6.6-10.02-4.54a1.507,1.507,0,0,0-.319-.106,1.657,1.657,0,0,0-.739-.015,1.733,1.733,0,0,0-1.386,1.695v62.037a1.731,1.731,0,0,0,1.729,1.729H564.7a1.731,1.731,0,0,0,1.729-1.729V433.534A1.722,1.722,0,0,0,565.934,432.324Zm0,63.247a1.236,1.236,0,0,1-1.235,1.235H456.006a1.236,1.236,0,0,1-1.235-1.235V433.534a1.235,1.235,0,0,1,.566-1.038,1.276,1.276,0,0,1,.4-.168,1.105,1.105,0,0,1,.126-.02.962.962,0,0,1,.146-.01,1.228,1.228,0,0,1,.509.111l10.459,4.74,14.466,6.556,4.066,1.843.66.3,17.216,7.8,2.426,1.1,3.831,1.737a1.734,1.734,0,0,0,1.428,0l3.831-1.737,11.991-5.435,11.176-5.067,26.126-11.84a1.235,1.235,0,0,1,1.178.086.457.457,0,0,1,.057.04.311.311,0,0,1,.054.044,1.225,1.225,0,0,1,.455.954Zm-40.244-46.254L513.7,454.751l-2.838,1.287a1.239,1.239,0,0,1-1.018,0l-2.838-1.287h-1.2l3.831,1.737a1.734,1.734,0,0,0,1.428,0l3.831-1.737,11.991-5.435Zm0,0L513.7,454.751l-2.838,1.287a1.239,1.239,0,0,1-1.018,0l-2.838-1.287h-1.2l3.831,1.737a1.734,1.734,0,0,0,1.428,0l3.831-1.737,11.991-5.435Zm-40.184-3.767.66.3v-.539Zm40.184,3.767L513.7,454.751l-2.838,1.287a1.239,1.239,0,0,1-1.018,0l-2.838-1.287h-1.2l3.831,1.737a1.734,1.734,0,0,0,1.428,0l3.831-1.737,11.991-5.435Z" transform="translate(-396.335 -375.298)" fill="#3f3d56"/>
    <path id="Path_123" data-name="Path 123" d="M309.41,695.429H281.5a.247.247,0,1,1,0-.494H309.41a.247.247,0,1,1,0,.494Z" transform="translate(-266.05 -573.427)" fill="#3f3d56"/>
    <path id="Path_124" data-name="Path 124" d="M312.661,332.943a2.644,2.644,0,0,1,.244-4.824c1.831-.707,3.883.735,5.8.325a3.825,3.825,0,0,0,2.563-4.6,6.113,6.113,0,0,0-3.951-4.019,8.518,8.518,0,0,0-7.347.673,7.843,7.843,0,0,0-3.692,6.332,7.272,7.272,0,0,0,3.519,6.371,2.282,2.282,0,0,0,1.6.38A4.472,4.472,0,0,0,312.661,332.943Z" transform="translate(-284.897 -290.579)" fill="#2f2e41"/>
    <path id="Path_125" data-name="Path 125" d="M245.521,307.257a13.652,13.652,0,0,0-6.33-4.773,10.075,10.075,0,0,0-7.816.43,8.011,8.011,0,0,0-4.343,6.356c-.309,4.453,3.5,8.238,3.887,12.684a8.529,8.529,0,0,1-11.195,8.837,8.979,8.979,0,0,0,6.921,1.964,8.346,8.346,0,0,0,5.94-4,11.685,11.685,0,0,0,1.344-4.927,21.892,21.892,0,0,0-.857-8.027,9.41,9.41,0,0,1-.735-4.334,3.944,3.944,0,0,1,3.072-3.076,7,7,0,0,1,3.643.574,11.373,11.373,0,0,0,3.591.956,3.2,3.2,0,0,0,3.081-1.689Z" transform="translate(-219.723 -277.483)" fill="#2f2e41"/>
  </g>
</svg>
