<svg width="409" height="134" viewBox="0 0 409 134" fill="none" xmlns="http://www.w3.org/2000/svg">
<path d="M3.01209 129.012H85.3481V132H0.854095L3.01209 129.012ZM7.49409 123.036H85.3481V126.024H5.17009L7.49409 123.036ZM11.6441 117.06H85.3481V120.048H9.65209L11.6441 117.06ZM16.1261 111.084H85.3481V114.072H13.9681L16.1261 111.084ZM59.1201 52.154C61.2228 49.2767 62.2741 46.2333 62.2741 43.024C62.2741 38.8187 60.7248 35.222 57.6261 32.234C54.6381 29.1353 51.0414 27.586 46.8361 27.586C42.6308 27.586 38.9788 29.1353 35.8801 32.234C32.8921 35.222 31.3981 38.8187 31.3981 43.024C31.3981 48.4467 33.7774 52.7073 38.5361 55.806L36.7101 58.296C31.1768 54.7547 28.4101 49.664 28.4101 43.024C28.4101 37.9333 30.1808 33.6173 33.7221 30.076C37.3741 26.424 41.7454 24.598 46.8361 24.598C51.9268 24.598 56.2428 26.424 59.7841 30.076C63.4361 33.6173 65.2621 37.9333 65.2621 43.024C65.2621 47.008 64.1001 50.6047 61.7761 53.814L24.0941 105.108H27.5801L64.1001 55.308C66.8668 51.5453 68.2501 47.4507 68.2501 43.024C68.2501 37.1587 66.1474 32.1233 61.9421 27.918C57.7368 23.7127 52.7014 21.61 46.8361 21.61C40.9708 21.61 35.9354 23.7127 31.7301 27.918C27.5248 32.1233 25.4221 37.1587 25.4221 43.024C25.4221 50.66 28.6314 56.5807 35.0501 60.786L33.2241 63.276C26.0308 58.4067 22.4341 51.656 22.4341 43.024C22.4341 36.384 24.8134 30.6847 29.5721 25.926C34.3308 21.0567 40.0854 18.622 46.8361 18.622C53.4761 18.622 59.1754 21.0567 63.9341 25.926C68.8034 30.6847 71.2381 36.384 71.2381 43.024C71.2381 48.2253 69.7441 52.8733 66.7561 56.968L31.3981 105.108H35.2161L69.2461 58.462C72.5661 53.9247 74.2261 48.7787 74.2261 43.024C74.2261 35.4987 71.5148 29.08 66.0921 23.768C60.7801 18.3453 54.3614 15.634 46.8361 15.634C39.3108 15.634 32.8368 18.3453 27.4141 23.768C22.1021 29.08 19.4461 35.4987 19.4461 43.024C19.4461 52.7627 23.4854 60.288 31.5641 65.6L29.5721 67.924C20.8294 61.8373 16.4581 53.5373 16.4581 43.024C16.4581 34.724 19.3908 27.586 25.2561 21.61C31.2321 15.634 38.4254 12.646 46.8361 12.646C55.1361 12.646 62.2741 15.634 68.2501 21.61C74.2261 27.586 77.2141 34.724 77.2141 43.024C77.2141 49.5533 75.3881 55.308 71.7361 60.288L38.8681 105.108H42.3541L74.3921 61.782C78.2654 56.5807 80.2021 50.328 80.2021 43.024C80.2021 33.8387 76.9374 25.9813 70.4081 19.452C63.8788 12.9227 56.0214 9.65799 46.8361 9.65799C37.6508 9.65799 29.7934 12.9227 23.2641 19.452C16.7348 25.9813 13.4701 33.8387 13.4701 43.024C13.4701 54.5333 18.2841 63.6633 27.9121 70.414L26.0861 72.904C15.7941 65.3787 10.6481 55.4187 10.6481 43.024C10.6481 33.064 14.1894 24.5427 21.2721 17.46C28.3548 10.2667 36.8761 6.66999 46.8361 6.66999C56.7961 6.66999 65.2621 10.2667 72.2341 17.46C79.3168 24.5427 82.8581 33.064 82.8581 43.024C82.8581 50.992 80.8108 57.798 76.7161 63.442L46.3381 105.108H49.9901L79.3721 64.936C83.7988 58.8493 86.0121 51.5453 86.0121 43.024C86.0121 32.1787 82.1388 22.938 74.3921 15.302C66.7561 7.55533 57.5708 3.68199 46.8361 3.68199C36.1014 3.68199 26.8608 7.55533 19.1141 15.302C11.3674 22.938 7.49409 32.1787 7.49409 43.024C7.49409 56.7467 13.1381 67.4813 24.4261 75.228L22.7661 77.552C17.3434 74.0107 12.9721 69.1413 9.65209 62.944C6.33209 56.7467 4.6721 50.1067 4.6721 43.024C4.6721 31.2933 8.76676 21.3333 16.9561 13.144C25.1454 4.844 35.1054 0.693999 46.8361 0.693999C58.4561 0.693999 68.3608 4.844 76.5501 13.144C84.7394 21.3333 88.8341 31.2933 88.8341 43.024C88.8341 52.2093 86.5101 60.0113 81.8621 66.43L53.6421 105.108H85.3481V108.096H18.1181L59.1201 52.154ZM105.661 48.668C105.661 35.388 110.309 24.1 119.605 14.804C129.012 5.39733 140.3 0.693999 153.469 0.693999C166.749 0.693999 178.037 5.39733 187.333 14.804C196.74 24.1 201.443 35.388 201.443 48.668V85.52C201.443 98.6893 196.74 109.977 187.333 119.384C178.037 128.68 166.749 133.328 153.469 133.328C140.3 133.328 129.012 128.68 119.605 119.384C110.309 109.977 105.661 98.6893 105.661 85.52V48.668ZM108.649 85.52C108.649 97.9147 113.02 108.483 121.763 117.226C130.506 125.969 141.074 130.34 153.469 130.34C165.864 130.34 176.432 125.969 185.175 117.226C194.028 108.483 198.455 97.9147 198.455 85.52V48.668C198.455 36.2733 194.028 25.7047 185.175 16.962C176.432 8.10866 165.864 3.68199 153.469 3.68199C141.074 3.68199 130.506 8.10866 121.763 16.962C113.02 25.7047 108.649 36.2733 108.649 48.668V85.52ZM117.613 48.668C117.613 38.708 121.099 30.242 128.071 23.27C135.154 16.1873 143.62 12.646 153.469 12.646C163.429 12.646 171.895 16.1873 178.867 23.27C185.95 30.242 189.491 38.708 189.491 48.668V85.52C189.491 95.3693 185.95 103.835 178.867 110.918C171.895 118.001 163.429 121.542 153.469 121.542C143.62 121.542 135.154 118.001 128.071 110.918C121.099 103.835 117.613 95.3693 117.613 85.52V48.668ZM120.601 85.52C120.601 94.5947 123.755 102.397 130.063 108.926C136.482 115.345 144.284 118.554 153.469 118.554C162.544 118.554 170.29 115.345 176.709 108.926C183.238 102.397 186.503 94.5947 186.503 85.52V48.668C186.503 39.5933 183.238 31.8467 176.709 25.428C170.29 18.8987 162.544 15.634 153.469 15.634C144.284 15.634 136.482 18.8987 130.063 25.428C123.755 31.8467 120.601 39.5933 120.601 48.668V85.52ZM129.399 48.668C129.399 42.028 131.723 36.384 136.371 31.736C141.13 26.9773 146.829 24.598 153.469 24.598C160.22 24.598 165.919 26.9773 170.567 31.736C175.215 36.384 177.539 42.028 177.539 48.668V85.52C177.539 92.16 175.215 97.8593 170.567 102.618C165.919 107.266 160.22 109.59 153.469 109.59C146.829 109.59 141.13 107.266 136.371 102.618C131.723 97.8593 129.399 92.16 129.399 85.52V48.668ZM132.387 85.52C132.387 91.2747 134.434 96.2547 138.529 100.46C142.734 104.555 147.714 106.602 153.469 106.602C159.334 106.602 164.314 104.555 168.409 100.46C172.504 96.2547 174.551 91.2747 174.551 85.52V48.668C174.551 42.8027 172.504 37.8227 168.409 33.728C164.314 29.6333 159.334 27.586 153.469 27.586C147.714 27.586 142.734 29.6333 138.529 33.728C134.434 37.8227 132.387 42.8027 132.387 48.668V85.52ZM123.423 48.668C123.423 40.4787 126.356 33.4513 132.221 27.586C138.197 21.61 145.28 18.622 153.469 18.622C161.769 18.622 168.852 21.61 174.717 27.586C180.582 33.4513 183.515 40.4787 183.515 48.668V85.52C183.515 93.7093 180.582 100.792 174.717 106.768C168.852 112.633 161.769 115.566 153.469 115.566C145.28 115.566 138.197 112.633 132.221 106.768C126.356 100.792 123.423 93.7093 123.423 85.52V48.668ZM126.411 85.52C126.411 92.9347 129.067 99.298 134.379 104.61C139.691 109.922 146.054 112.578 153.469 112.578C160.994 112.578 167.358 109.922 172.559 104.61C177.871 99.298 180.527 92.9347 180.527 85.52V48.668C180.527 41.1427 177.871 34.7793 172.559 29.578C167.358 24.266 160.994 21.61 153.469 21.61C146.054 21.61 139.691 24.266 134.379 29.578C129.067 34.7793 126.411 41.1427 126.411 48.668V85.52ZM114.625 85.52C114.625 96.3653 118.388 105.606 125.913 113.242C133.549 120.767 142.734 124.53 153.469 124.53C164.314 124.53 173.5 120.712 181.025 113.076C188.661 105.44 192.479 96.2547 192.479 85.52V48.668C192.479 37.9333 188.661 28.748 181.025 21.112C173.5 13.476 164.314 9.65799 153.469 9.65799C142.734 9.65799 133.549 13.476 125.913 21.112C118.388 28.6373 114.625 37.8227 114.625 48.668V85.52ZM111.637 48.668C111.637 37.048 115.732 27.1433 123.921 18.954C132.11 10.7647 141.96 6.66999 153.469 6.66999C165.089 6.66999 174.994 10.7647 183.183 18.954C191.372 27.1433 195.467 37.048 195.467 48.668V85.52C195.467 97.0293 191.372 106.934 183.183 115.234C174.994 123.423 165.089 127.518 153.469 127.518C141.96 127.518 132.11 123.423 123.921 115.234C115.732 106.934 111.637 97.0293 111.637 85.52V48.668ZM219.266 129.012H301.602V132H217.108L219.266 129.012ZM223.748 123.036H301.602V126.024H221.424L223.748 123.036ZM227.898 117.06H301.602V120.048H225.906L227.898 117.06ZM232.38 111.084H301.602V114.072H230.222L232.38 111.084ZM275.374 52.154C277.477 49.2767 278.528 46.2333 278.528 43.024C278.528 38.8187 276.979 35.222 273.88 32.234C270.892 29.1353 267.295 27.586 263.09 27.586C258.885 27.586 255.233 29.1353 252.134 32.234C249.146 35.222 247.652 38.8187 247.652 43.024C247.652 48.4467 250.031 52.7073 254.79 55.806L252.964 58.296C247.431 54.7547 244.664 49.664 244.664 43.024C244.664 37.9333 246.435 33.6173 249.976 30.076C253.628 26.424 257.999 24.598 263.09 24.598C268.181 24.598 272.497 26.424 276.038 30.076C279.69 33.6173 281.516 37.9333 281.516 43.024C281.516 47.008 280.354 50.6047 278.03 53.814L240.348 105.108H243.834L280.354 55.308C283.121 51.5453 284.504 47.4507 284.504 43.024C284.504 37.1587 282.401 32.1233 278.196 27.918C273.991 23.7127 268.955 21.61 263.09 21.61C257.225 21.61 252.189 23.7127 247.984 27.918C243.779 32.1233 241.676 37.1587 241.676 43.024C241.676 50.66 244.885 56.5807 251.304 60.786L249.478 63.276C242.285 58.4067 238.688 51.656 238.688 43.024C238.688 36.384 241.067 30.6847 245.826 25.926C250.585 21.0567 256.339 18.622 263.09 18.622C269.73 18.622 275.429 21.0567 280.188 25.926C285.057 30.6847 287.492 36.384 287.492 43.024C287.492 48.2253 285.998 52.8733 283.01 56.968L247.652 105.108H251.47L285.5 58.462C288.82 53.9247 290.48 48.7787 290.48 43.024C290.48 35.4987 287.769 29.08 282.346 23.768C277.034 18.3453 270.615 15.634 263.09 15.634C255.565 15.634 249.091 18.3453 243.668 23.768C238.356 29.08 235.7 35.4987 235.7 43.024C235.7 52.7627 239.739 60.288 247.818 65.6L245.826 67.924C237.083 61.8373 232.712 53.5373 232.712 43.024C232.712 34.724 235.645 27.586 241.51 21.61C247.486 15.634 254.679 12.646 263.09 12.646C271.39 12.646 278.528 15.634 284.504 21.61C290.48 27.586 293.468 34.724 293.468 43.024C293.468 49.5533 291.642 55.308 287.99 60.288L255.122 105.108H258.608L290.646 61.782C294.519 56.5807 296.456 50.328 296.456 43.024C296.456 33.8387 293.191 25.9813 286.662 19.452C280.133 12.9227 272.275 9.65799 263.09 9.65799C253.905 9.65799 246.047 12.9227 239.518 19.452C232.989 25.9813 229.724 33.8387 229.724 43.024C229.724 54.5333 234.538 63.6633 244.166 70.414L242.34 72.904C232.048 65.3787 226.902 55.4187 226.902 43.024C226.902 33.064 230.443 24.5427 237.526 17.46C244.609 10.2667 253.13 6.66999 263.09 6.66999C273.05 6.66999 281.516 10.2667 288.488 17.46C295.571 24.5427 299.112 33.064 299.112 43.024C299.112 50.992 297.065 57.798 292.97 63.442L262.592 105.108H266.244L295.626 64.936C300.053 58.8493 302.266 51.5453 302.266 43.024C302.266 32.1787 298.393 22.938 290.646 15.302C283.01 7.55533 273.825 3.68199 263.09 3.68199C252.355 3.68199 243.115 7.55533 235.368 15.302C227.621 22.938 223.748 32.1787 223.748 43.024C223.748 56.7467 229.392 67.4813 240.68 75.228L239.02 77.552C233.597 74.0107 229.226 69.1413 225.906 62.944C222.586 56.7467 220.926 50.1067 220.926 43.024C220.926 31.2933 225.021 21.3333 233.21 13.144C241.399 4.844 251.359 0.693999 263.09 0.693999C274.71 0.693999 284.615 4.844 292.804 13.144C300.993 21.3333 305.088 31.2933 305.088 43.024C305.088 52.2093 302.764 60.0113 298.116 66.43L269.896 105.108H301.602V108.096H234.372L275.374 52.154ZM357.273 61.284V58.296H364.743C368.948 58.296 372.545 56.802 375.533 53.814C378.632 50.826 380.181 47.2293 380.181 43.024C380.181 38.8187 378.632 35.222 375.533 32.234C372.545 29.1353 368.948 27.586 364.743 27.586C361.202 27.586 358.048 28.6927 355.281 30.906C352.514 33.0087 350.688 35.72 349.803 39.04L347.313 36.716C350.522 28.6373 356.332 24.598 364.743 24.598C369.834 24.598 374.15 26.424 377.691 30.076C381.343 33.6173 383.169 37.9333 383.169 43.024C383.169 48.004 381.343 52.32 377.691 55.972C374.15 59.5133 369.834 61.284 364.743 61.284H357.273ZM357.273 64.272H364.743C370.608 64.272 375.644 62.2247 379.849 58.13C384.054 53.9247 386.157 48.8893 386.157 43.024C386.157 37.1587 384.054 32.1233 379.849 27.918C375.644 23.7127 370.608 21.61 364.743 21.61C355.558 21.61 348.973 25.8707 344.989 34.392L342.665 32.4C347.534 23.2147 354.894 18.622 364.743 18.622C371.383 18.622 377.082 21.0567 381.841 25.926C386.71 30.6847 389.145 36.384 389.145 43.024C389.145 48.1147 387.651 52.7073 384.663 56.802C381.786 60.786 377.968 63.7187 373.209 65.6C378.3 67.4813 382.394 70.6353 385.493 75.062C388.702 79.378 390.307 84.3027 390.307 89.836C390.307 96.9187 387.817 103.005 382.837 108.096C377.857 113.076 371.826 115.566 364.743 115.566C359.431 115.566 354.617 114.127 350.301 111.25C345.985 108.262 342.886 104.389 341.005 99.63L343.495 97.638C345.044 102.065 347.756 105.661 351.629 108.428C355.502 111.195 359.874 112.578 364.743 112.578C370.94 112.578 376.252 110.365 380.679 105.938C385.106 101.401 387.319 96.0333 387.319 89.836C387.319 83.6387 385.106 78.3267 380.679 73.9C376.252 69.4733 370.94 67.26 364.743 67.26H357.273V64.272ZM348.309 92.824C348.862 96.5867 350.744 99.8513 353.953 102.618C357.162 105.274 360.759 106.602 364.743 106.602C369.28 106.602 373.154 104.942 376.363 101.622C379.683 98.302 381.343 94.3733 381.343 89.836C381.343 85.2987 379.683 81.4253 376.363 78.216C373.154 74.896 369.28 73.236 364.743 73.236H357.273V70.248H364.743C370.166 70.248 374.758 72.1847 378.521 76.058C382.394 79.8207 384.331 84.4133 384.331 89.836C384.331 95.2587 382.394 99.9067 378.521 103.78C374.758 107.653 370.166 109.59 364.743 109.59C360.316 109.59 356.332 108.262 352.791 105.606C349.25 102.95 346.87 99.5193 345.653 95.314L348.309 92.824ZM396.947 65.102C401.595 58.5727 403.919 51.2133 403.919 43.024C403.919 32.1787 400.046 22.938 392.299 15.302C384.663 7.55533 375.478 3.68199 364.743 3.68199C350.799 3.68199 339.732 9.71332 331.543 21.776L329.385 19.95C332.705 14.5273 337.464 10.0453 343.661 6.50399C350.301 2.63066 357.328 0.693999 364.743 0.693999C376.363 0.693999 386.268 4.844 394.457 13.144C402.646 21.3333 406.741 31.2933 406.741 43.024C406.741 51.5453 404.638 58.96 400.433 65.268C405.634 72.0187 408.235 80.208 408.235 89.836C408.235 101.899 403.974 112.191 395.453 120.712C386.932 129.123 376.695 133.328 364.743 133.328C356.886 133.328 349.637 131.447 342.997 127.684C336.357 123.921 331.156 118.886 327.393 112.578L329.717 110.586C333.369 116.562 338.294 121.376 344.491 125.028C350.688 128.569 357.439 130.34 364.743 130.34C375.92 130.34 385.438 126.411 393.295 118.554C401.263 110.697 405.247 101.124 405.247 89.836C405.247 81.4253 402.48 73.1807 396.947 65.102ZM389.311 65.434C395.066 58.9047 397.943 51.4347 397.943 43.024C397.943 33.8387 394.678 25.9813 388.149 19.452C381.73 12.9227 373.928 9.65799 364.743 9.65799C352.127 9.65799 342.554 15.136 336.025 26.092L334.033 24.1C340.894 12.48 351.131 6.66999 364.743 6.66999C374.703 6.66999 383.169 10.2667 390.141 17.46C397.224 24.5427 400.765 33.064 400.765 43.024C400.765 51.8773 398.22 59.292 393.129 65.268C399.216 72.4613 402.259 80.6507 402.259 89.836C402.259 100.239 398.552 109.147 391.137 116.562C383.833 123.866 375.035 127.518 364.743 127.518C357.771 127.518 351.408 125.803 345.653 122.372C339.898 118.941 335.361 114.293 332.041 108.428L334.199 106.27C337.187 111.693 341.392 116.119 346.815 119.55C352.238 122.87 358.214 124.53 364.743 124.53C374.26 124.53 382.394 121.155 389.145 114.404C395.896 107.653 399.271 99.464 399.271 89.836C399.271 80.4293 395.951 72.2953 389.311 65.434ZM384.829 65.6C392.465 71.7973 396.283 79.876 396.283 89.836C396.283 98.5787 393.184 106.049 386.987 112.246C380.79 118.443 373.375 121.542 364.743 121.542C352.238 121.542 342.776 115.732 336.357 104.112L338.681 101.954C341.005 106.934 344.491 110.973 349.139 114.072C353.898 117.06 359.099 118.554 364.743 118.554C372.6 118.554 379.296 115.732 384.829 110.088C390.473 104.444 393.295 97.6933 393.295 89.836C393.295 84.3027 391.801 79.1567 388.813 74.398C386.268 70.6353 383.224 67.7027 379.683 65.6C383.003 63.608 385.77 60.786 387.983 57.134C390.639 52.818 391.967 48.1147 391.967 43.024C391.967 35.4987 389.311 29.08 383.999 23.768C378.687 18.3453 372.268 15.634 364.743 15.634C359.542 15.634 354.783 16.962 350.467 19.618C346.151 22.274 342.831 25.8153 340.507 30.242L338.183 28.084C344.159 17.792 353.012 12.646 364.743 12.646C373.043 12.646 380.126 15.634 385.991 21.61C391.967 27.586 394.955 34.724 394.955 43.024C394.955 52.32 391.58 59.8453 384.829 65.6Z" fill="#569324"/>
</svg>
